<svg xmlns="http://www.w3.org/2000/svg" xmlns:xlink="http://www.w3.org/1999/xlink" version="1.1" width="256" height="256" viewBox="0 0 256 256" xml:space="preserve">

<defs>
</defs>
<g style="stroke: none; stroke-width: 0; stroke-dasharray: none; stroke-linecap: butt; stroke-linejoin: miter; stroke-miterlimit: 10; fill: none; fill-rule: nonzero; opacity: 1;" transform="translate(1.4065934065934016 1.4065934065934016) scale(2.81 2.81)" >
	<path d="M 33.595 38.369 c 1.228 -0.242 4.162 -6.03 4.162 -16.152 c 0 -10.123 -2.935 -15.91 -4.187 -16.152 c -1.227 0.241 -4.162 6.028 -4.162 16.152 S 32.344 38.127 33.595 38.369 z" style="stroke: none; stroke-width: 1; stroke-dasharray: none; stroke-linecap: butt; stroke-linejoin: miter; stroke-miterlimit: 10; fill: rgb(0,0,0); fill-rule: nonzero; opacity: 1;" transform=" matrix(1 0 0 1 0 0) " stroke-linecap="round" />
	<path d="M 66.826 29.97 c 0.421 -2.393 0.641 -5.041 0.641 -7.753 c 0 -2.712 -0.221 -5.361 -0.641 -7.754 l -10.115 -2.531 c 0.677 3.079 1.038 6.596 1.038 10.285 c 0 3.688 -0.361 7.205 -1.038 10.285 L 66.826 29.97 z" style="stroke: none; stroke-width: 1; stroke-dasharray: none; stroke-linecap: butt; stroke-linejoin: miter; stroke-miterlimit: 10; fill: rgb(0,0,0); fill-rule: nonzero; opacity: 1;" transform=" matrix(1 0 0 1 0 0) " stroke-linecap="round" />
	<path d="M 51.014 33.927 c 1.022 -3.157 1.599 -7.336 1.599 -11.71 s -0.577 -8.553 -1.599 -11.71 L 40.713 7.929 c 1.477 4.015 2.182 9.246 2.182 14.288 s -0.705 10.273 -2.182 14.288 L 51.014 33.927 z" style="stroke: none; stroke-width: 1; stroke-dasharray: none; stroke-linecap: butt; stroke-linejoin: miter; stroke-miterlimit: 10; fill: rgb(0,0,0); fill-rule: nonzero; opacity: 1;" transform=" matrix(1 0 0 1 0 0) " stroke-linecap="round" />
	<path d="M 79.383 26.828 c 0.711 -3.091 0.711 -6.132 0 -9.223 l -7.164 -1.793 c 0.253 2.052 0.385 4.215 0.385 6.405 c 0 2.19 -0.132 4.352 -0.385 6.404 L 79.383 26.828 z" style="stroke: none; stroke-width: 1; stroke-dasharray: none; stroke-linecap: butt; stroke-linejoin: miter; stroke-miterlimit: 10; fill: rgb(0,0,0); fill-rule: nonzero; opacity: 1;" transform=" matrix(1 0 0 1 0 0) " stroke-linecap="round" />
	<path d="M 33.128 35.892 c -0.298 0 -0.601 -0.081 -0.872 -0.251 L 13.003 23.616 c -0.483 -0.301 -0.776 -0.83 -0.776 -1.399 c 0 -0.569 0.293 -1.098 0.776 -1.399 L 32.255 8.793 c 0.773 -0.482 1.79 -0.248 2.273 0.525 c 0.483 0.773 0.248 1.791 -0.525 2.273 L 16.992 22.217 l 17.012 10.625 c 0.773 0.483 1.008 1.5 0.525 2.273 C 34.216 35.617 33.678 35.892 33.128 35.892 z" style="stroke: none; stroke-width: 1; stroke-dasharray: none; stroke-linecap: butt; stroke-linejoin: miter; stroke-miterlimit: 10; fill: rgb(0,0,0); fill-rule: nonzero; opacity: 1;" transform=" matrix(1 0 0 1 0 0) " stroke-linecap="round" />
	<path d="M 18.659 90 V 4.288 C 18.659 1.92 16.739 0 14.371 0 c -2.368 0 -4.288 1.92 -4.288 4.288 V 90 H 18.659 z" style="stroke: none; stroke-width: 1; stroke-dasharray: none; stroke-linecap: butt; stroke-linejoin: miter; stroke-miterlimit: 10; fill: rgb(0,0,0); fill-rule: nonzero; opacity: 1;" transform=" matrix(1 0 0 1 0 0) " stroke-linecap="round" />
</g>
</svg>